<mxfile host="app.diagrams.net" agent="Mozilla/5.0 (Windows NT 10.0; Win64; x64) AppleWebKit/537.36 (KHTML, like Gecko) Chrome/133.0.0.0 Safari/537.36" version="26.0.16">
  <diagram name="PÃ¡gina-1" id="NvXGu0LL23RdIBb6cHA3">
    <mxGraphModel dx="1372" dy="635" grid="1" gridSize="10" guides="1" tooltips="1" connect="1" arrows="1" fold="1" page="1" pageScale="1" pageWidth="827" pageHeight="1169" math="0" shadow="0">
      <root>
        <mxCell id="0" />
        <mxCell id="1" parent="0" />
        <mxCell id="oVRG8Wv2bnwbLluUMukV-6" style="edgeStyle=orthogonalEdgeStyle;rounded=0;orthogonalLoop=1;jettySize=auto;html=1;exitX=1;exitY=0.5;exitDx=0;exitDy=0;entryX=0;entryY=0.5;entryDx=0;entryDy=0;" edge="1" parent="1" source="oVRG8Wv2bnwbLluUMukV-1" target="oVRG8Wv2bnwbLluUMukV-4">
          <mxGeometry relative="1" as="geometry" />
        </mxCell>
        <mxCell id="oVRG8Wv2bnwbLluUMukV-1" value="&lt;b&gt;Usuario&lt;/b&gt;" style="rounded=0;whiteSpace=wrap;html=1;fillColor=#fff2cc;strokeColor=#EA6B66;" vertex="1" parent="1">
          <mxGeometry x="-10" y="170" width="160" height="50" as="geometry" />
        </mxCell>
        <mxCell id="oVRG8Wv2bnwbLluUMukV-10" style="edgeStyle=orthogonalEdgeStyle;rounded=0;orthogonalLoop=1;jettySize=auto;html=1;exitX=0.5;exitY=1;exitDx=0;exitDy=0;entryX=0.5;entryY=0;entryDx=0;entryDy=0;" edge="1" parent="1" source="oVRG8Wv2bnwbLluUMukV-2" target="oVRG8Wv2bnwbLluUMukV-5">
          <mxGeometry relative="1" as="geometry" />
        </mxCell>
        <mxCell id="oVRG8Wv2bnwbLluUMukV-2" value="&lt;b&gt;Rol&lt;/b&gt;" style="rounded=0;whiteSpace=wrap;html=1;fillColor=#fff2cc;strokeColor=#EA6B66;" vertex="1" parent="1">
          <mxGeometry x="510" y="170" width="160" height="50" as="geometry" />
        </mxCell>
        <mxCell id="oVRG8Wv2bnwbLluUMukV-3" value="&lt;b&gt;Permiso&lt;/b&gt;" style="rounded=0;whiteSpace=wrap;html=1;fillColor=#FFFF99;strokeColor=#EA6B66;" vertex="1" parent="1">
          <mxGeometry x="510" y="490" width="160" height="50" as="geometry" />
        </mxCell>
        <mxCell id="oVRG8Wv2bnwbLluUMukV-7" style="edgeStyle=orthogonalEdgeStyle;rounded=0;orthogonalLoop=1;jettySize=auto;html=1;exitX=1;exitY=0.5;exitDx=0;exitDy=0;" edge="1" parent="1" source="oVRG8Wv2bnwbLluUMukV-4" target="oVRG8Wv2bnwbLluUMukV-2">
          <mxGeometry relative="1" as="geometry" />
        </mxCell>
        <mxCell id="oVRG8Wv2bnwbLluUMukV-4" value="Tiene" style="rhombus;whiteSpace=wrap;html=1;fillColor=#f8cecc;strokeColor=#FFFF99;" vertex="1" parent="1">
          <mxGeometry x="284" y="155" width="130" height="80" as="geometry" />
        </mxCell>
        <mxCell id="oVRG8Wv2bnwbLluUMukV-11" style="edgeStyle=orthogonalEdgeStyle;rounded=0;orthogonalLoop=1;jettySize=auto;html=1;exitX=0.5;exitY=1;exitDx=0;exitDy=0;entryX=0.5;entryY=0;entryDx=0;entryDy=0;" edge="1" parent="1" source="oVRG8Wv2bnwbLluUMukV-5" target="oVRG8Wv2bnwbLluUMukV-3">
          <mxGeometry relative="1" as="geometry" />
        </mxCell>
        <mxCell id="oVRG8Wv2bnwbLluUMukV-5" value="Incluye" style="rhombus;whiteSpace=wrap;html=1;fillColor=#f8cecc;strokeColor=#FFFF99;" vertex="1" parent="1">
          <mxGeometry x="525" y="310" width="130" height="80" as="geometry" />
        </mxCell>
        <mxCell id="oVRG8Wv2bnwbLluUMukV-8" value="N.M" style="text;html=1;align=center;verticalAlign=middle;resizable=0;points=[];autosize=1;strokeColor=none;fillColor=none;" vertex="1" parent="1">
          <mxGeometry x="139" y="168" width="50" height="30" as="geometry" />
        </mxCell>
        <mxCell id="oVRG8Wv2bnwbLluUMukV-9" value="M.N" style="text;html=1;align=center;verticalAlign=middle;resizable=0;points=[];autosize=1;strokeColor=none;fillColor=none;" vertex="1" parent="1">
          <mxGeometry x="455" y="168" width="50" height="30" as="geometry" />
        </mxCell>
        <mxCell id="oVRG8Wv2bnwbLluUMukV-12" value="N.M" style="text;html=1;align=center;verticalAlign=middle;resizable=0;points=[];autosize=1;strokeColor=none;fillColor=none;" vertex="1" parent="1">
          <mxGeometry x="579" y="218" width="50" height="30" as="geometry" />
        </mxCell>
        <mxCell id="oVRG8Wv2bnwbLluUMukV-13" value="N.M" style="text;html=1;align=center;verticalAlign=middle;resizable=0;points=[];autosize=1;strokeColor=none;fillColor=none;" vertex="1" parent="1">
          <mxGeometry x="585" y="458" width="50" height="30" as="geometry" />
        </mxCell>
        <mxCell id="oVRG8Wv2bnwbLluUMukV-17" value="N.M" style="text;html=1;align=center;verticalAlign=middle;resizable=0;points=[];autosize=1;strokeColor=none;fillColor=none;" vertex="1" parent="1">
          <mxGeometry x="650" y="338" width="50" height="30" as="geometry" />
        </mxCell>
        <mxCell id="oVRG8Wv2bnwbLluUMukV-18" value="N.M" style="text;html=1;align=center;verticalAlign=middle;resizable=0;points=[];autosize=1;strokeColor=none;fillColor=none;" vertex="1" parent="1">
          <mxGeometry x="324" y="240" width="50" height="30" as="geometry" />
        </mxCell>
      </root>
    </mxGraphModel>
  </diagram>
</mxfile>
